<?xml version="1.0" encoding="UTF-8" standalone="no"?>
<!DOCTYPE svg PUBLIC "-//W3C//DTD SVG 1.1//EN" "http://www.w3.org/Graphics/SVG/1.1/DTD/svg11.dtd">
<svg version="1.1" xmlns="http://www.w3.org/2000/svg" xmlns:xlink="http://www.w3.org/1999/xlink" preserveAspectRatio="xMidYMid meet" viewBox="0 0 999.6 630" width="999.6" height="630"><defs><path d="M693.1 372C686.46 372 681.08 366.62 681.08 359.99C681.08 330.7 681.08 96.38 681.08 67.09C681.08 60.46 686.46 55.08 693.1 55.08C712.19 55.08 864.9 55.08 883.99 55.08C890.62 55.08 896 60.46 896 67.09C896 96.38 896 330.7 896 359.99C896 366.62 890.62 372 883.99 372C845.81 372 712.19 372 693.1 372Z" id="a2wicThmh"></path><path d="M693.1 372C686.46 372 681.08 366.62 681.08 359.99C681.08 330.7 681.08 96.38 681.08 67.09C681.08 60.46 686.46 55.08 693.1 55.08C712.19 55.08 864.9 55.08 883.99 55.08C890.62 55.08 896 60.46 896 67.09C896 96.38 896 330.7 896 359.99C896 366.62 890.62 372 883.99 372C845.81 372 712.19 372 693.1 372Z" id="bgQocCRxA"></path><path d="M880 87C880 87 880 87 880 87C880 238.75 880 323.06 880 339.92C880 339.92 880 339.92 880 339.92C770.8 339.92 710.13 339.92 698 339.92C698 339.92 698 339.92 698 339.92C698 188.17 698 103.86 698 87C698 87 698 87 698 87C807.2 87 867.87 87 880 87Z" id="e3IoeQ1hyU"></path><path d="M789.02 347C784.59 347 781 350.59 781 355.02C781 359.45 784.59 363.04 789.02 363.04C793.45 363.04 797.04 359.45 797.04 355.02C797.04 350.59 793.45 347 789.02 347Z" id="aF0t7lpR5"></path><path d="M787.99 69C786.34 69 785 70.34 785 71.99C785 73.64 786.34 74.98 787.99 74.98C789.64 74.98 790.98 73.64 790.98 71.99C790.98 70.34 789.64 69 787.99 69Z" id="dFjLFftyk"></path><path d="M99 1C85.5 1 74 12.07 74 25.79C74 47.54 74 156.29 74 352.03L620 352.03C620 156.29 620 47.54 620 25.79C620 12.07 608.54 1 595 1C495.8 1 148.6 1 99 1Z" id="axlTysJNQ"></path><path d="M348 16C345.79 16 344 17.79 344 20C344 22.21 345.79 24 348 24C350.21 24 352 22.21 352 20C352 17.79 350.21 16 348 16Z" id="b292CQS8t"></path><path d="M52.29 383.01C21.64 383.01 1 372.49 1 368.02C1 366.66 1 355.79 1 354.43C1 353.08 2.34 352 4 352C72.61 352 621.49 352 690.1 352C691.77 352 693.1 353.08 693.1 354.43C693.1 355.84 693.1 367.14 693.1 368.56C693.1 372.09 677.11 383.01 641.81 383.01C523.91 383.01 111.24 383.01 52.29 383.01Z" id="a2YzDQTpc"></path><path d="M1.5 366.5L691.24 366.5" id="g1VCK6DY1B"></path><path d="M597.07 40C597.07 40 597.07 40 597.07 40C597.07 215.21 597.07 312.54 597.07 332.01C597.07 332.01 597.07 332.01 597.07 332.01C296.43 332.01 129.4 332.01 96 332.01C96 332.01 96 332.01 96 332.01C96 156.8 96 59.47 96 40C96 40 96 40 96 40C396.64 40 563.67 40 597.07 40Z" id="d1vEhUt1mY"></path><path d="M422 353C422 354.85 422 355.88 422 356.09C422 358.29 417.67 358.95 414.39 358.95C400.93 358.95 293.27 358.95 279.82 358.95C276.36 358.95 272 358.29 272 356.09C272 355.88 272 354.85 272 353" id="cHop36GHe"></path><path d="M693.94 413.31C684.15 413.31 605.85 413.31 596.06 413.31C587.19 413.31 580 406.15 580 397.32C580 373.13 580 179.62 580 155.43C580 146.6 587.19 139.44 596.06 139.44C605.85 139.44 684.15 139.44 693.94 139.44C702.81 139.44 710 146.6 710 155.43C710 171.56 710 252.19 710 397.32L710 397.32C705.21 407.98 699.85 413.31 693.94 413.31Z" id="amDJKmDQ"></path><path d="M700.97 183.93C700.97 183.93 700.97 183.93 700.97 183.93C700.97 303.38 700.97 369.74 700.97 383.01C700.97 383.01 700.97 383.01 700.97 383.01C633.81 383.01 596.5 383.01 589.04 383.01C589.04 383.01 589.04 383.01 589.04 383.01C589.04 263.56 589.04 197.2 589.04 183.93C589.04 183.93 589.04 183.93 589.04 183.93C656.19 183.93 693.5 183.93 700.97 183.93Z" id="cjYcxi9zr"></path><path d="M656.03 399.31C656.03 405.39 651.09 410.31 645 410.31C638.91 410.31 633.97 405.39 633.97 399.31C633.97 393.24 638.91 388.31 645 388.31C651.09 388.31 656.03 393.24 656.03 399.31Z" id="a113vkH4KI"></path><path d="M655.05 176.51C653.04 176.51 636.96 176.51 634.95 176.51C634.41 176.51 633.97 176 633.97 175.37C633.97 175.11 633.97 173.04 633.97 172.79C633.97 172.15 634.41 171.64 634.95 171.64C636.96 171.64 653.04 171.64 655.05 171.64C655.59 171.64 656.03 172.15 656.03 172.79C656.03 172.96 656.03 173.82 656.03 175.37L656.03 175.37C655.74 176.13 655.41 176.51 655.05 176.51Z" id="ebcTI73c6"></path><path d="M645 158.03C643.34 158.03 642 159.37 642 161.03C642 162.69 643.34 164.03 645 164.03C646.66 164.03 648 162.69 648 161.03C648 159.37 646.66 158.03 645 158.03Z" id="a4xyRmq7YJ"></path></defs><g><g><g><use xlink:href="#a2wicThmh" opacity="1" fill="#fdfdfd" fill-opacity="1"></use><g><use xlink:href="#a2wicThmh" opacity="1" fill-opacity="0" stroke="#7e89a3" stroke-width="2" stroke-opacity="1"></use></g></g><g><use xlink:href="#bgQocCRxA" opacity="1" fill="#fdfdfd" fill-opacity="1"></use><g><use xlink:href="#bgQocCRxA" opacity="1" fill-opacity="0" stroke="#7e89a3" stroke-width="2" stroke-opacity="1"></use></g></g><g><use xlink:href="#e3IoeQ1hyU" opacity="1" fill="#ffffff" fill-opacity="1"></use><g><use xlink:href="#e3IoeQ1hyU" opacity="1" fill-opacity="0" stroke="#7e89a3" stroke-width="1" stroke-opacity="1"></use></g></g><g><use xlink:href="#aF0t7lpR5" opacity="1" fill="#000000" fill-opacity="0"></use><g><use xlink:href="#aF0t7lpR5" opacity="1" fill-opacity="0" stroke="#7e89a3" stroke-width="1" stroke-opacity="1"></use></g></g><g><use xlink:href="#dFjLFftyk" opacity="1" fill="#000000" fill-opacity="0"></use><g><use xlink:href="#dFjLFftyk" opacity="1" fill-opacity="0" stroke="#7e89a3" stroke-width="1" stroke-opacity="1"></use></g></g><g><use xlink:href="#axlTysJNQ" opacity="1" fill="#fefefe" fill-opacity="1"></use><g><use xlink:href="#axlTysJNQ" opacity="1" fill-opacity="0" stroke="#8492a5" stroke-width="2" stroke-opacity="1"></use></g></g><g><use xlink:href="#b292CQS8t" opacity="1" fill="#000000" fill-opacity="0"></use><g><use xlink:href="#b292CQS8t" opacity="1" fill-opacity="0" stroke="#8492a5" stroke-width="2" stroke-opacity="1"></use></g></g><g><use xlink:href="#a2YzDQTpc" opacity="1" fill="#fdfdfd" fill-opacity="1"></use><g><use xlink:href="#a2YzDQTpc" opacity="1" fill-opacity="0" stroke="#8492a5" stroke-width="2" stroke-opacity="1"></use></g></g><g><use xlink:href="#g1VCK6DY1B" opacity="1" fill="#000000" fill-opacity="0"></use><g><use xlink:href="#g1VCK6DY1B" opacity="1" fill-opacity="0" stroke="#8492a5" stroke-width="1" stroke-opacity="1"></use></g></g><g><use xlink:href="#d1vEhUt1mY" opacity="1" fill="#ffffff" fill-opacity="1"></use><g><use xlink:href="#d1vEhUt1mY" opacity="1" fill-opacity="0" stroke="#8492a5" stroke-width="1" stroke-opacity="1"></use></g></g><g><use xlink:href="#cHop36GHe" opacity="1" fill="#ffffff" fill-opacity="1"></use><g><use xlink:href="#cHop36GHe" opacity="1" fill-opacity="0" stroke="#8492a5" stroke-width="1" stroke-opacity="1"></use></g></g><g><use xlink:href="#amDJKmDQ" opacity="1" fill="#fdfdfd" fill-opacity="1"></use><g><use xlink:href="#amDJKmDQ" opacity="1" fill-opacity="0" stroke="#7e89a3" stroke-width="2" stroke-opacity="1"></use></g></g><g><use xlink:href="#cjYcxi9zr" opacity="1" fill="#ffffff" fill-opacity="1"></use><g><use xlink:href="#cjYcxi9zr" opacity="1" fill-opacity="0" stroke="#7e89a3" stroke-width="1" stroke-opacity="1"></use></g></g><g><use xlink:href="#a113vkH4KI" opacity="1" fill="#000000" fill-opacity="0"></use><g><use xlink:href="#a113vkH4KI" opacity="1" fill-opacity="0" stroke="#7e89a3" stroke-width="1" stroke-opacity="1"></use></g></g><g><use xlink:href="#ebcTI73c6" opacity="1" fill="#000000" fill-opacity="0"></use><g><use xlink:href="#ebcTI73c6" opacity="1" fill-opacity="0" stroke="#7e89a3" stroke-width="1" stroke-opacity="1"></use></g></g><g><use xlink:href="#a4xyRmq7YJ" opacity="1" fill="#000000" fill-opacity="0"></use><g><use xlink:href="#a4xyRmq7YJ" opacity="1" fill-opacity="0" stroke="#7e89a3" stroke-width="1" stroke-opacity="1"></use></g></g></g></g></svg>